<?xml version="1.0" encoding="UTF-8" standalone="no"?>
<!-- Created with Inkscape (http://www.inkscape.org/) -->

<svg
   xmlns:dc="http://purl.org/dc/elements/1.1/"
   xmlns:cc="http://creativecommons.org/ns#"
   xmlns:rdf="http://www.w3.org/1999/02/22-rdf-syntax-ns#"
   xmlns:svg="http://www.w3.org/2000/svg"
   xmlns="http://www.w3.org/2000/svg"
   xmlns:sodipodi="http://sodipodi.sourceforge.net/DTD/sodipodi-0.dtd"
   xmlns:inkscape="http://www.inkscape.org/namespaces/inkscape"
   width="139.74001"
   height="89.389999"
   id="svg3341"
   version="1.1"
   inkscape:version="0.48.1 "
   sodipodi:docname="Neues Dokument 3">
  <defs
     id="defs3343">
    <clipPath
       clipPathUnits="userSpaceOnUse"
       id="clipPath256">
      <path
         inkscape:connector-curvature="0"
         d="m 90.57716,13.644 0,16.5999 110.20018,0 0,-16.5999 -110.20018,0 z"
         id="path258" />
    </clipPath>
    <clipPath
       clipPathUnits="userSpaceOnUse"
       id="clipPath282">
      <path
         inkscape:connector-curvature="0"
         d="m 0,60.48782 401.55499,0 0,-60.45782 L 0,0.03 0,60.48782 z"
         id="path284" />
    </clipPath>
    <clipPath
       clipPathUnits="userSpaceOnUse"
       id="clipPath154">
      <path
         inkscape:connector-curvature="0"
         d="m 720.02774,417.83833 0,50.92914 63.05512,0 0,-50.92914 -63.05512,0 z"
         id="path156" />
    </clipPath>
    <clipPath
       clipPathUnits="userSpaceOnUse"
       id="clipPath162">
      <path
         inkscape:connector-curvature="0"
         d="m 0,140.90703 139.66498,0 0,-140.87703 L 0,0.03 0,140.90703 z"
         id="path164" />
    </clipPath>
    <clipPath
       clipPathUnits="userSpaceOnUse"
       id="clipPath196">
      <path
         inkscape:connector-curvature="0"
         d="m 0,140.90703 139.66498,0 0,-140.87703 L 0,0.03 0,140.90703 z"
         id="path198" />
    </clipPath>
    <clipPath
       clipPathUnits="userSpaceOnUse"
       id="clipPath208">
      <path
         inkscape:connector-curvature="0"
         d="m 0,140.90703 139.66498,0 0,-140.87703 L 0,0.03 0,140.90703 z"
         id="path210" />
    </clipPath>
    <clipPath
       clipPathUnits="userSpaceOnUse"
       id="clipPath244">
      <path
         inkscape:connector-curvature="0"
         d="m 0,140.90703 139.66498,0 0,-140.87703 L 0,0.03 0,140.90703 z"
         id="path246" />
    </clipPath>
    <clipPath
       clipPathUnits="userSpaceOnUse"
       id="clipPath256-4">
      <path
         inkscape:connector-curvature="0"
         d="m 90.57716,13.644 0,16.5999 110.20018,0 0,-16.5999 -110.20018,0 z"
         id="path258-0" />
    </clipPath>
    <clipPath
       clipPathUnits="userSpaceOnUse"
       id="clipPath282-9">
      <path
         inkscape:connector-curvature="0"
         d="m 0,60.48782 401.55499,0 0,-60.45782 L 0,0.03 0,60.48782 z"
         id="path284-4" />
    </clipPath>
    <clipPath
       clipPathUnits="userSpaceOnUse"
       id="clipPath154-8">
      <path
         inkscape:connector-curvature="0"
         d="m 720.02774,417.83833 0,50.92914 63.05512,0 0,-50.92914 -63.05512,0 z"
         id="path156-8" />
    </clipPath>
    <clipPath
       clipPathUnits="userSpaceOnUse"
       id="clipPath162-2">
      <path
         inkscape:connector-curvature="0"
         d="m 0,140.90703 139.66498,0 0,-140.87703 L 0,0.03 0,140.90703 z"
         id="path164-4" />
    </clipPath>
    <clipPath
       clipPathUnits="userSpaceOnUse"
       id="clipPath196-5">
      <path
         inkscape:connector-curvature="0"
         d="m 0,140.90703 139.66498,0 0,-140.87703 L 0,0.03 0,140.90703 z"
         id="path198-5" />
    </clipPath>
    <clipPath
       clipPathUnits="userSpaceOnUse"
       id="clipPath208-1">
      <path
         inkscape:connector-curvature="0"
         d="m 0,140.90703 139.66498,0 0,-140.87703 L 0,0.03 0,140.90703 z"
         id="path210-7" />
    </clipPath>
    <clipPath
       clipPathUnits="userSpaceOnUse"
       id="clipPath244-1">
      <path
         inkscape:connector-curvature="0"
         d="m 0,140.90703 139.66498,0 0,-140.87703 L 0,0.03 0,140.90703 z"
         id="path246-1" />
    </clipPath>
  </defs>
  <sodipodi:namedview
     id="base"
     pagecolor="#ffffff"
     bordercolor="#666666"
     borderopacity="1.0"
     inkscape:pageopacity="0.0"
     inkscape:pageshadow="2"
     inkscape:zoom="45.555745"
     inkscape:cx="55.257397"
     inkscape:cy="61.155031"
     inkscape:document-units="px"
     inkscape:current-layer="layer1"
     showgrid="false"
     fit-margin-top="0"
     fit-margin-left="0"
     fit-margin-right="0"
     fit-margin-bottom="0"
     inkscape:window-width="1024"
     inkscape:window-height="708"
     inkscape:window-x="-4"
     inkscape:window-y="-4"
     inkscape:window-maximized="1" />
  <metadata
     id="metadata3346">
    <rdf:RDF>
      <cc:Work
         rdf:about="">
        <dc:format>image/svg+xml</dc:format>
        <dc:type
           rdf:resource="http://purl.org/dc/dcmitype/StillImage" />
        <dc:title></dc:title>
      </cc:Work>
    </rdf:RDF>
  </metadata>
  <g
     inkscape:label="Ebene 1"
     inkscape:groupmode="layer"
     id="layer1"
     transform="translate(-379.14552,-507.25761)">
    <g
       id="g150"
       transform="matrix(1.2499676,-1.9627161e-6,1.9627161e-6,1.2499676,-481.21707,-13.888899)">
      <g
         id="g152"
         clip-path="url(#clipPath154-8)">
        <g
           id="g158"
           transform="matrix(0.34015,0,0,-0.34015,720.68953,465.52559)">
          <g
             id="g160"
             clip-path="url(#clipPath162-2)">
            <path
               d="m 18.03558,57.92413 -0.21579,0.28781 1.29587,0.792 0.14414,-0.1438 -1.22422,-0.93601"
               style="fill:#231f20;fill-opacity:1;fill-rule:evenodd;stroke:none"
               id="path166"
               inkscape:connector-curvature="0" />
            <path
               d="m 17.74759,75.92413 c -0.21591,1.94382 -0.79199,3.95999 -1.58399,5.9758 0.50437,1.29621 -0.43173,3.6001 1.65619,4.10401 2.7359,-1.07981 1.3682,-5.0398 4.39209,-5.61591 3.52781,2.448 6.98392,4.46411 11.51999,4.03189 2.30371,1.51203 2.01572,5.47202 4.60791,6.91211 2.37601,-2.01608 1.72812,-5.18399 2.5918,-7.77609 -0.79199,-1.22391 0.28812,-2.51999 0.1441,-3.7439 0.64792,-0.936 1.43991,-0.4321 1.94382,0.14377 -1.00781,3.7442 2.59229,7.20023 1.80029,10.94412 1.8721,2.8801 1.15189,6.69608 3.74421,9.4321 -0.792,1.72781 1.07962,2.37601 1.51167,4.17609 1.65622,2.87991 1.00831,7.99191 5.76021,8.56781 0.64802,3.38409 4.53572,2.448 5.68802,5.68799 1.44,3.88821 4.60787,0.43222 7.05567,2.376 0.72022,-0.28781 1.43992,0.28812 1.80031,0.79203 0.50389,-2.37601 3.312,-1.29593 5.04001,-1.36789 l 2.95171,0.79196 c 1.1523,-2.80789 3.88818,-2.0882 6.19238,-1.72809 0.50391,0.43191 0.6479,-0.36011 0.86371,-0.50388 -0.71971,-0.216 -1.0078,-1.29614 -1.15181,-1.94412 1.29591,-4.03189 7.416,-0.71991 7.0556,-5.97601 4.39211,-4.03198 8.71251,-10.15189 6.6241,-16.55979 -0.5757,-1.80007 -1.07959,-4.2481 0.28812,-5.68832 2.01629,0.1441 3.02427,1.65634 3.16829,3.38434 0.36,5.61566 -3.3842,13.10397 3.31199,16.77588 0.504,3.45599 -0.14399,8.0639 2.59201,10.43991 1.08001,1.51218 1.224,4.53619 3.38401,4.17609 0.216,-1.0799 -0.93601,-2.52009 0.64798,-3.16797 0.43202,3.74386 4.32,4.03198 5.32801,7.41595 1.224,0.50391 1.656,2.88013 3.38401,1.8721 0.28798,-0.28805 0.576,-0.57617 0.64798,-1.00805 0.86401,-0.50391 1.15201,0.64797 1.656,1.00805 5.112,-0.93609 3.528,4.96799 8.20801,5.03977 1.368,2.01614 2.448,5.25613 5.18399,5.76027 1.15201,-0.14405 3.45601,0.35986 2.808,-1.80007 -0.35999,-2.16012 -1.79997,-4.82394 0.43201,-6.48019 2.01599,-3.52783 -3.60001,-6.26398 -0.57599,-9.50397 -1.80002,-2.73581 -1.87201,-5.68799 -5.25601,-6.62399 0.50399,-4.896 -2.88001,-7.1279 -4.46401,-11.37601 -3.09599,-1.87198 -2.87999,-6.76801 -4.464,-9.50388 -2.448,-2.0881 -3.38401,-7.34402 -7.55999,-6.04809 -2.664,-1.58392 0.504,-4.82392 -2.304,-6.04813 -4.68,-3.02389 -12.09599,-2.66379 -14.76019,-7.34369 l -81.86421,0"
               style="fill:#231f20;fill-opacity:1;fill-rule:evenodd;stroke:none"
               id="path168"
               inkscape:connector-curvature="0" />
          </g>
        </g>
        <g
           id="g170"
           transform="matrix(0.34015,0,0,-0.34015,720.68953,465.52559)">
          <path
             d="m 99.6118,75.92413 c -0.57622,-1.00808 -0.936,-2.376 -0.936,-4.03219 0.21579,-1.79981 -1.08011,-3.38382 0.21579,-5.1839 1.5124,-1.29614 4.6804,-1.5119 3.9604,-4.24802 -2.16,-2.30398 -5.976,-4.3201 -4.6801,-8.20801 0,-0.86398 -1.15239,-1.1521 -2.0161,-1.43997 -0.57622,-1.5119 0.07169,-3.74392 -2.3042,-3.9599 0.288,-2.8081 -2.44781,-6.84012 1.08,-8.35214 0.86429,0.72003 2.44829,1.36795 3.2403,0.14404 1.58398,-3.81601 0.2881,-7.272 -2.1602,-10.29602 -1.22411,-2.59201 -0.144,-5.328 -1.3681,-7.84799 l 1.6562,-5.04001 c -1.728,-0.79199 -1.0078,-4.03198 -3.45601,-4.17599 -0.28809,-0.35999 0.07222,-0.86402 0.21581,-1.224 l -0.2876,0.79199 c -0.72019,0.28799 -1.51221,-0.72 -1.584,-1.58401 l -1.728,0.86401 0.07169,0.36001 -1.08,0.35999 c 5.39991,6.84 0,16.12799 0.28802,24.12 -0.28802,0.57601 -0.2158,1.29602 -0.7202,1.58404 -3.95991,-6.19202 -2.59181,-13.60803 -4.24751,-20.16003 -1.44051,-0.71997 -2.73641,-1.224 -2.95221,-2.51999 -0.21629,0.28799 -0.4321,0.07199 -0.7202,0 -0.35988,-0.288 0.07231,-0.57602 0.07231,-0.93604 -0.07231,0.21604 -0.1441,0.50403 -0.50391,0.57605 -0.93609,-0.28802 0.50391,-0.57605 -0.14408,-0.79202 0.28759,0.36002 -0.28811,0.57599 -0.57612,0.79202 -0.57618,-1.58401 -1.1519,-0.93603 -2.59178,-2.66403 -0.07231,0.28799 -0.28811,0.28799 -0.43222,0.36002 l -0.3598,-0.64801 -1.08008,0.50399 -0.28811,-0.64801 c -0.57621,0.36002 -0.86431,1.51203 -0.21579,2.66404 0.21579,0.21597 0.43159,0.07199 0.57569,0 l 0.144,0.28799 c -0.35991,1.224 -0.07181,-0.504 0.4321,-0.43204 -0.3598,2.30405 2.80811,2.01605 3.23981,3.96002 0.28808,7.48801 2.16008,14.54401 1.08008,22.6081 -5.544,4.03201 -11.01618,9.35983 -11.376,17.49582 0.14402,0.79199 -0.43209,1.656 -0.64799,2.51999 -5.75971,-6.55198 -3.38379,-16.41599 -7.34371,-24.1919 -0.2881,-4.46399 1.15181,-9.43201 1.51171,-13.67999 0.07229,-1.80002 -2.23191,-3.384 -1.36821,-5.18402 -0.64791,0.79199 -1.00778,-0.35999 -1.58388,-0.57599 0,-0.86398 -0.35991,-1.44 -0.86381,-1.87201 -2.0161,0.07202 -1.15191,-4.75201 -3.81589,-2.01599 l 0.14399,-0.14401 -0.14399,-0.21598 -0.2881,0.07202 0.2881,0.28797 C 53.6758,14.07605 53.53168,14.22 53.38768,14.07605 L 53.2437,13.78802 c -0.07181,1.224 -2.08791,0.36002 -2.8082,0.86402 -0.86369,1.29599 -0.43161,3.02402 0,4.53598 -3.52782,0.07199 -5.61571,-7.776 -9.2158,-2.87998 l -0.50391,1.65601 0.21579,-0.14404 c 0.79202,4.39203 6.84042,5.18402 6.4082,9.936 -0.3598,10.224 -2.95208,19.65592 -2.3042,29.88001 -1.87198,0.79202 -2.59179,3.02392 -4.8237,2.95193 -2.44818,-0.21612 -2.59231,-2.66382 -3.168,-4.32013 0.64801,-0.71969 -0.21627,-1.36789 -0.36029,-1.94378 -1.29589,-0.72001 -2.59179,-0.4321 -3.74371,0 -1.51221,1.43988 -3.0961,3.5281 -5.32809,3.5281 l -0.28809,0.93579 c 1.00778,1.22409 3.31198,0.792 4.31992,-0.57599 0.36029,-0.28781 0.64837,-1.00802 1.22406,-0.79202 2.52002,0.28812 0.3598,3.38413 2.87991,3.67221 0.28799,0.64789 0.936,1.5839 0.0722,2.01581 l -4.03219,0.64819 c -1.15192,-4.03222 -7.34381,0 -5.97614,-5.4721 -0.71966,-0.3599 -1.79977,-0.3599 -2.15957,-1.00809 0.43209,1.44019 1.36761,3.09589 0,4.3201 -1.94391,0.71991 -2.232,-2.232 -3.96,-2.5921 -0.07232,0.50418 0.43158,1.08011 -0.07232,1.80011 -0.79196,0.79199 -2.15958,-0.86405 -2.59177,0.14398 1.44,1.44 3.52789,1.22391 4.31989,3.168 -0.8638,2.664 -4.96778,-0.28809 -5.18409,3.09591 1.51218,2.73609 1.87198,5.68799 1.58399,8.71219 l 81.86421,0"
             style="fill:#231f20;fill-opacity:1;fill-rule:evenodd;stroke:none"
             id="path172"
             inkscape:connector-curvature="0" />
          <path
             d="m 24.08398,66.27594 c 1.79981,0.36008 3.4556,-0.1438 5.18363,-0.28781 2.3042,1.94382 4.96817,5.54388 8.56827,3.88788 0.43173,-0.57587 0.93612,-0.79196 0.57571,-1.58399 -1.00781,-2.73608 -3.9599,-3.95999 -6.62399,-3.95999 -0.57572,0.2161 -1.15192,1.07987 -1.79981,0.43189 -0.28808,-2.23191 -2.87991,-1.87198 -4.39212,-2.01581 -2.01608,0 -2.51996,2.44803 -1.51169,3.52783"
             style="fill:#ffffff;fill-opacity:1;fill-rule:evenodd;stroke:none"
             id="path174"
             inkscape:connector-curvature="0" />
          <path
             d="m 23.43549,73.61993 c 1.22421,-0.8638 0.28811,-2.376 -0.1435,-3.31198 -2.08838,0.57617 -1.22409,2.73609 0.1435,3.31198"
             style="fill:#ffffff;fill-opacity:1;fill-rule:evenodd;stroke:none"
             id="path176"
             inkscape:connector-curvature="0" />
          <path
             d="m 28.7637,69.08405 c 0.14398,0.07199 0.21628,0.28778 0.35977,0.43188 l 0.36042,-1.15189 C 28.7637,67.71609 27.3237,68.72391 28.7637,69.08405"
             style="fill:#ffffff;fill-opacity:1;fill-rule:evenodd;stroke:none"
             id="path178"
             inkscape:connector-curvature="0" />
          <path
             d="m 34.0195,77.72394 c 0.64847,0.28808 1.29639,0.4321 1.9444,0.07199 -0.50391,-1.0798 -1.51221,-2.44797 -1.8003,-3.81592 -0.64801,-0.21609 -1.36773,-0.50418 -2.01571,0.07202 -0.14398,1.512 1.22369,2.448 1.87161,3.67191"
             style="fill:#ffffff;fill-opacity:1;fill-rule:evenodd;stroke:none"
             id="path180"
             inkscape:connector-curvature="0" />
          <path
             d="m 53.6758,39.99603 c 0.21579,3.88809 0.0718,7.84799 -0.9361,11.80802 -0.2158,1.79998 1.36819,3.67178 2.01617,5.25579 0.71972,-4.53591 0.86371,-9.43188 0.86371,-14.32781 l -1.94378,-2.736"
             style="fill:#ed1c24;fill-opacity:1;fill-rule:evenodd;stroke:none"
             id="path182"
             inkscape:connector-curvature="0" />
          <path
             d="m 84.34769,45.82794 c 1.9443,-0.28781 2.44819,-2.9519 2.9521,-4.4639 -1.2959,0.21589 -2.37601,1.08008 -3.168,1.87211 -0.144,0.93579 -0.144,1.72799 0.2159,2.59179"
             style="fill:#ffffff;fill-opacity:1;fill-rule:evenodd;stroke:none"
             id="path184"
             inkscape:connector-curvature="0" />
          <path
             d="m 52.7397,51.80405 c -0.2158,1.79998 1.36819,3.67178 2.01617,5.25579 L 52.7397,51.80405"
             style="fill:#231f20;fill-opacity:1;fill-rule:evenodd;stroke:none"
             id="path186"
             inkscape:connector-curvature="0" />
          <path
             d="m 18.03558,57.92413 -0.21579,0.28781 1.29587,0.792 0.14414,-0.1438 -1.22422,-0.93601"
             style="fill:#231f20;fill-opacity:1;fill-rule:evenodd;stroke:none"
             id="path188"
             inkscape:connector-curvature="0" />
          <path
             d="m 18.03558,57.92413 -0.21579,0.28781 1.29587,0.792 0.14414,-0.1438 -1.22422,-0.93601 z"
             style="fill:none;stroke:#ffffff;stroke-width:0.50400001;stroke-linecap:butt;stroke-linejoin:miter;stroke-miterlimit:4;stroke-opacity:1;stroke-dasharray:none"
             id="path190"
             inkscape:connector-curvature="0" />
          <g
             id="g192">
            <g
               id="g194"
               clip-path="url(#clipPath196-5)">
              <path
                 d="m 17.74759,75.92413 c -0.21591,1.94382 -0.79199,3.95999 -1.58399,5.9758 0.50437,1.29621 -0.43173,3.6001 1.65619,4.10401 2.7359,-1.07981 1.3682,-5.0398 4.39209,-5.61591 3.52781,2.448 6.98392,4.46411 11.51999,4.03189 2.30371,1.51203 2.01572,5.47202 4.60791,6.91211 2.37601,-2.01608 1.72812,-5.18399 2.5918,-7.77609 -0.79199,-1.22391 0.28812,-2.51999 0.1441,-3.7439 0.64792,-0.936 1.43991,-0.4321 1.94382,0.14377 -1.00781,3.7442 2.59229,7.20023 1.80029,10.94412 1.8721,2.8801 1.15189,6.69608 3.74421,9.4321 -0.792,1.72781 1.07962,2.37601 1.51167,4.17609 1.65622,2.87991 1.00831,7.99191 5.76021,8.56781 0.64802,3.38409 4.53572,2.448 5.68802,5.68799 1.44,3.88821 4.60787,0.43222 7.05567,2.376 0.72022,-0.28781 1.43992,0.28812 1.80031,0.79203 0.50389,-2.37601 3.312,-1.29593 5.04001,-1.36789 l 2.95171,0.79196 c 1.1523,-2.80789 3.88818,-2.0882 6.19238,-1.72809 0.50391,0.43191 0.6479,-0.36011 0.86371,-0.50388 -0.71971,-0.216 -1.0078,-1.29614 -1.15181,-1.94412 1.29591,-4.03189 7.416,-0.71991 7.0556,-5.97601 4.39211,-4.03198 8.71251,-10.15189 6.6241,-16.55979 -0.5757,-1.80007 -1.07959,-4.2481 0.28812,-5.68832 2.01629,0.1441 3.02427,1.65634 3.16829,3.38434 0.36,5.61566 -3.3842,13.10397 3.31199,16.77588 0.504,3.45599 -0.14399,8.0639 2.59201,10.43991 1.08001,1.51218 1.224,4.53619 3.38401,4.17609 0.216,-1.0799 -0.93601,-2.52009 0.64798,-3.16797 0.43202,3.74386 4.32,4.03198 5.32801,7.41595 1.224,0.50391 1.656,2.88013 3.38401,1.8721 0.28798,-0.28805 0.576,-0.57617 0.64798,-1.00805 0.86401,-0.50391 1.15201,0.64797 1.656,1.00805 5.112,-0.93609 3.528,4.96799 8.20801,5.03977 1.368,2.01614 2.448,5.25613 5.18399,5.76027 1.15201,-0.14405 3.45601,0.35986 2.808,-1.80007 -0.35999,-2.16012 -1.79997,-4.82394 0.43201,-6.48019 2.01599,-3.52783 -3.60001,-6.26398 -0.57599,-9.50397 -1.80002,-2.73581 -1.87201,-5.68799 -5.25601,-6.62399 0.50399,-4.896 -2.88001,-7.1279 -4.46401,-11.37601 -3.09599,-1.87198 -2.87999,-6.76801 -4.464,-9.50388 -2.448,-2.0881 -3.38401,-7.34402 -7.55999,-6.04809 -2.664,-1.58392 0.504,-4.82392 -2.304,-6.04813 -4.68,-3.02389 -12.09599,-2.66379 -14.76019,-7.34369 l -81.86421,0"
                 style="fill:#231f20;fill-opacity:1;fill-rule:evenodd;stroke:none"
                 id="path200"
                 inkscape:connector-curvature="0" />
            </g>
          </g>
          <path
             d="m 99.6118,75.92413 c -0.57622,-1.00808 -0.936,-2.376 -0.936,-4.03219 0.21579,-1.79981 -1.08011,-3.38382 0.21579,-5.1839 1.5124,-1.29614 4.6804,-1.5119 3.9604,-4.24802 -2.16,-2.30398 -5.976,-4.3201 -4.6801,-8.20801 0,-0.86398 -1.15239,-1.1521 -2.0161,-1.43997 -0.57622,-1.5119 0.07169,-3.74392 -2.3042,-3.9599 0.288,-2.8081 -2.44781,-6.84012 1.08,-8.35214 0.86429,0.72003 2.44829,1.36795 3.2403,0.14404 1.58398,-3.81601 0.2881,-7.272 -2.1602,-10.29602 -1.22411,-2.59201 -0.144,-5.328 -1.3681,-7.84799 l 1.6562,-5.04001 c -1.728,-0.79199 -1.0078,-4.03198 -3.45601,-4.17599 -0.28809,-0.35999 0.07222,-0.86402 0.21581,-1.224 l -0.2876,0.79199 c -0.72019,0.28799 -1.51221,-0.72 -1.584,-1.58401 l -1.728,0.86401 0.07169,0.36001 -1.08,0.35999 c 5.39991,6.84 0,16.12799 0.28802,24.12 -0.28802,0.57601 -0.2158,1.29602 -0.7202,1.58404 -3.95991,-6.19202 -2.59181,-13.60803 -4.24751,-20.16003 -1.44051,-0.71997 -2.73641,-1.224 -2.95221,-2.51999 -0.21629,0.28799 -0.4321,0.07199 -0.7202,0 -0.35988,-0.288 0.07231,-0.57602 0.07231,-0.93604 -0.07231,0.21604 -0.1441,0.50403 -0.50391,0.57605 -0.93609,-0.28802 0.50391,-0.57605 -0.14408,-0.79202 0.28759,0.36002 -0.28811,0.57599 -0.57612,0.79202 -0.57618,-1.58401 -1.1519,-0.93603 -2.59178,-2.66403 -0.07231,0.28799 -0.28811,0.28799 -0.43222,0.36002 l -0.3598,-0.64801 -1.08008,0.50399 -0.28811,-0.64801 c -0.57621,0.36002 -0.86431,1.51203 -0.21579,2.66404 0.21579,0.21597 0.43159,0.07199 0.57569,0 l 0.144,0.28799 c -0.35991,1.224 -0.07181,-0.504 0.4321,-0.43204 -0.3598,2.30405 2.80811,2.01605 3.23981,3.96002 0.28808,7.48801 2.16008,14.54401 1.08008,22.6081 -5.544,4.03201 -11.01618,9.35983 -11.376,17.49582 0.14402,0.79199 -0.43209,1.656 -0.64799,2.51999 -5.75971,-6.55198 -3.38379,-16.41599 -7.34371,-24.1919 -0.2881,-4.46399 1.15181,-9.43201 1.51171,-13.67999 0.07229,-1.80002 -2.23191,-3.384 -1.36821,-5.18402 -0.64791,0.79199 -1.00778,-0.35999 -1.58388,-0.57599 0,-0.86398 -0.35991,-1.44 -0.86381,-1.87201 -2.0161,0.07202 -1.15191,-4.75201 -3.81589,-2.01599 l 0.14399,-0.14401 -0.14399,-0.21598 -0.2881,0.07202 0.2881,0.28797 C 53.6758,14.07605 53.53168,14.22 53.38768,14.07605 L 53.2437,13.78802 c -0.07181,1.224 -2.08791,0.36002 -2.8082,0.86402 -0.86369,1.29599 -0.43161,3.02402 0,4.53598 -3.52782,0.07199 -5.61571,-7.776 -9.2158,-2.87998 l -0.50391,1.65601 0.21579,-0.14404 c 0.79202,4.39203 6.84042,5.18402 6.4082,9.936 -0.3598,10.224 -2.95208,19.65592 -2.3042,29.88001 -1.87198,0.79202 -2.59179,3.02392 -4.8237,2.95193 -2.44818,-0.21612 -2.59231,-2.66382 -3.168,-4.32013 0.64801,-0.71969 -0.21627,-1.36789 -0.36029,-1.94378 -1.29589,-0.72001 -2.59179,-0.4321 -3.74371,0 -1.51221,1.43988 -3.0961,3.5281 -5.32809,3.5281 l -0.28809,0.93579 c 1.00778,1.22409 3.31198,0.792 4.31992,-0.57599 0.36029,-0.28781 0.64837,-1.00802 1.22406,-0.79202 2.52002,0.28812 0.3598,3.38413 2.87991,3.67221 0.28799,0.64789 0.936,1.5839 0.0722,2.01581 l -4.03219,0.64819 c -1.15192,-4.03222 -7.34381,0 -5.97614,-5.4721 -0.71966,-0.3599 -1.79977,-0.3599 -2.15957,-1.00809 0.43209,1.44019 1.36761,3.09589 0,4.3201 -1.94391,0.71991 -2.232,-2.232 -3.96,-2.5921 -0.07232,0.50418 0.43158,1.08011 -0.07232,1.80011 -0.79196,0.79199 -2.15958,-0.86405 -2.59177,0.14398 1.44,1.44 3.52789,1.22391 4.31989,3.168 -0.8638,2.664 -4.96778,-0.28809 -5.18409,3.09591 1.51218,2.73609 1.87198,5.68799 1.58399,8.71219 l 81.86421,0"
             style="fill:#231f20;fill-opacity:1;fill-rule:evenodd;stroke:none"
             id="path202"
             inkscape:connector-curvature="0" />
          <g
             id="g204">
            <g
               id="g206"
               clip-path="url(#clipPath208-1)">
              <path
                 d="m 21.34769,64.11603 c -0.8638,2.664 -4.96778,-0.28809 -5.18409,3.09591 2.44819,4.60819 2.01609,9.6482 0,14.68799 0.50437,1.29621 -0.43173,3.6001 1.65619,4.10401 2.7359,-1.07981 1.3682,-5.0398 4.39209,-5.61591 3.52781,2.448 6.98392,4.46411 11.51999,4.03189 2.30371,1.51203 2.01572,5.47202 4.60791,6.91211 2.37601,-2.01608 1.72812,-5.18399 2.5918,-7.77609 -0.79199,-1.22391 0.28812,-2.51999 0.1441,-3.7439 0.64792,-0.936 1.43991,-0.4321 1.94382,0.14377 -1.00781,3.7442 2.59229,7.20023 1.80029,10.94412 1.8721,2.8801 1.15189,6.69608 3.74421,9.4321 -0.792,1.72781 1.07962,2.37601 1.51167,4.17609 1.65622,2.87991 1.00831,7.99191 5.76021,8.56781 0.64802,3.38409 4.53572,2.448 5.68802,5.68799 1.44,3.88821 4.60787,0.43222 7.05567,2.376 0.72022,-0.28781 1.43992,0.28812 1.80031,0.79203 0.50389,-2.37601 3.312,-1.29593 5.04001,-1.36789 m 0,0 2.95171,0.79196 m 0,0 c 1.1523,-2.80789 3.88818,-2.0882 6.19238,-1.72809 0.50391,0.43191 0.6479,-0.36011 0.86371,-0.50388 -0.71971,-0.216 -1.0078,-1.29614 -1.15181,-1.94412 1.29591,-4.03189 7.416,-0.71991 7.0556,-5.97601 4.39211,-4.03198 8.71251,-10.15189 6.6241,-16.55979 -0.5757,-1.80007 -1.07959,-4.2481 0.28812,-5.68832 2.01629,0.1441 3.02427,1.65634 3.16829,3.38434 0.36,5.61566 -3.3842,13.10397 3.31199,16.77588 0.504,3.45599 -0.14399,8.0639 2.59201,10.43991 1.08001,1.51218 1.224,4.53619 3.38401,4.17609 0.216,-1.0799 -0.93601,-2.52009 0.64798,-3.16797 0.43202,3.74386 4.32,4.03198 5.32801,7.41595 1.224,0.50391 1.656,2.88013 3.38401,1.8721 0.28798,-0.28805 0.576,-0.57617 0.64798,-1.00805 0.86401,-0.50391 1.15201,0.64797 1.656,1.00805 5.112,-0.93609 3.528,4.96799 8.20801,5.03977 1.368,2.01614 2.448,5.25613 5.18399,5.76027 1.15201,-0.14405 3.45601,0.35986 2.808,-1.80007 -0.35999,-2.16012 -1.79997,-4.82394 0.43201,-6.48019 2.01599,-3.52783 -3.60001,-6.26398 -0.57599,-9.50397 -1.80002,-2.73581 -1.87201,-5.68799 -5.25601,-6.62399 0.50399,-4.896 -2.88001,-7.1279 -4.46401,-11.37601 -3.09599,-1.87198 -2.87999,-6.76801 -4.464,-9.50388 -2.448,-2.0881 -3.38401,-7.34402 -7.55999,-6.04809 -2.664,-1.58392 0.504,-4.82392 -2.304,-6.04813 -5.76001,-3.74389 -15.5522,-2.37588 -15.69619,-11.37588 0.21579,-1.79981 -1.08011,-3.38382 0.21579,-5.1839 1.5124,-1.29614 4.6804,-1.5119 3.9604,-4.24802 -2.16,-2.30398 -5.976,-4.3201 -4.6801,-8.20801 0,-0.86398 -1.15239,-1.1521 -2.0161,-1.43997 -0.57622,-1.5119 0.07169,-3.74392 -2.3042,-3.9599 0.288,-2.8081 -2.44781,-6.84012 1.08,-8.35214 0.86429,0.72003 2.44829,1.36795 3.2403,0.14404 1.58398,-3.81601 0.2881,-7.272 -2.1602,-10.29602 -1.22411,-2.59201 -0.144,-5.328 -1.3681,-7.84799 m 0,0 1.6562,-5.04001 m 0,0 c -1.728,-0.79199 -1.0078,-4.03198 -3.45601,-4.17599 -0.28809,-0.35999 0.07222,-0.86402 0.21581,-1.224 m 0,0 -0.2876,0.79199 m 0,0 c -0.72019,0.28799 -1.51221,-0.72 -1.584,-1.58401 m 0,0 -1.728,0.86401 0.07169,0.36001 -1.08,0.35999 m 0,0 c 5.39991,6.84 0,16.12799 0.28802,24.12 -0.28802,0.57601 -0.2158,1.29602 -0.7202,1.58404 -3.95991,-6.19202 -2.59181,-13.60803 -4.24751,-20.16003 -1.44051,-0.71997 -2.73641,-1.224 -2.95221,-2.51999 -0.21629,0.28799 -0.4321,0.07199 -0.7202,0 -0.35988,-0.288 0.07231,-0.57602 0.07231,-0.93604 -0.07231,0.21604 -0.1441,0.50403 -0.50391,0.57605 -0.93609,-0.28802 0.50391,-0.57605 -0.14408,-0.79202 0.28759,0.36002 -0.28811,0.57599 -0.57612,0.79202 -0.57618,-1.58401 -1.1519,-0.93603 -2.59178,-2.66403 -0.07231,0.28799 -0.28811,0.28799 -0.43222,0.36002 m 0,0 -0.3598,-0.64801 -1.08008,0.50399 -0.28811,-0.64801 m 0,0 c -0.57621,0.36002 -0.86431,1.51203 -0.21579,2.66404 0.21579,0.21597 0.43159,0.07199 0.57569,0 m 0,0 0.144,0.28799 m 0,0 c -0.35991,1.224 -0.07181,-0.504 0.4321,-0.43204 -0.3598,2.30405 2.80811,2.01605 3.23981,3.96002 0.28808,7.48801 2.16008,14.54401 1.08008,22.6081 -5.544,4.03201 -11.01618,9.35983 -11.376,17.49582 0.14402,0.79199 -0.43209,1.656 -0.64799,2.51999 -5.75971,-6.55198 -3.38379,-16.41599 -7.34371,-24.1919 -0.2881,-4.46399 1.15181,-9.43201 1.51171,-13.67999 0.07229,-1.80002 -2.23191,-3.384 -1.36821,-5.18402 -0.64791,0.79199 -1.00778,-0.35999 -1.58388,-0.57599 0,-0.86398 -0.35991,-1.44 -0.86381,-1.87201 -2.0161,0.07202 -1.15191,-4.75201 -3.81589,-2.01599 m 0,0 0.14399,-0.14401 -0.14399,-0.21598 -0.2881,0.07202 0.2881,0.28797 z m 0,0 c -0.2881,0.07202 -0.43222,0.21597 -0.57622,0.07202 m 0,0 -0.14398,-0.28803 m 0,0 c -0.07181,1.224 -2.08791,0.36002 -2.8082,0.86402 -0.86369,1.29599 -0.43161,3.02402 0,4.53598 -3.52782,0.07199 -5.61571,-7.776 -9.2158,-2.87998 m 0,0 -0.50391,1.65601 0.21579,-0.14404 m 0,0 c 0.79202,4.39203 6.84042,5.18402 6.4082,9.936 -0.3598,10.224 -2.95208,19.65592 -2.3042,29.88001 -1.87198,0.79202 -2.59179,3.02392 -4.8237,2.95193 -2.44818,-0.21612 -2.59231,-2.66382 -3.168,-4.32013 0.64801,-0.71969 -0.21627,-1.36789 -0.36029,-1.94378 -1.29589,-0.72001 -2.59179,-0.4321 -3.74371,0 -1.51221,1.43988 -3.0961,3.5281 -5.32809,3.5281 m 0,0 -0.28809,0.93579 m 0,0 c 1.00778,1.22409 3.31198,0.792 4.31992,-0.57599 0.36029,-0.28781 0.64837,-1.00802 1.22406,-0.79202 2.52002,0.28812 0.3598,3.38413 2.87991,3.67221 0.28799,0.64789 0.936,1.5839 0.0722,2.01581 m 0,0 -4.03219,0.64819 m 0,0 c -1.15192,-4.03222 -7.34381,0 -5.97614,-5.4721 -0.71966,-0.3599 -1.79977,-0.3599 -2.15957,-1.00809 0.43209,1.44019 1.36761,3.09589 0,4.3201 -1.94391,0.71991 -2.232,-2.232 -3.96,-2.5921 -0.07232,0.50418 0.43158,1.08011 -0.07232,1.80011 -0.79196,0.79199 -2.15958,-0.86405 -2.59177,0.14398 1.44,1.44 3.52789,1.22391 4.31989,3.168"
                 style="fill:none;stroke:#ffffff;stroke-width:0.50400001;stroke-linecap:square;stroke-linejoin:miter;stroke-miterlimit:4;stroke-opacity:1;stroke-dasharray:none"
                 id="path212"
                 inkscape:connector-curvature="0" />
            </g>
          </g>
          <path
             d="m 24.08398,66.27594 c 1.79981,0.36008 3.4556,-0.1438 5.18363,-0.28781 2.3042,1.94382 4.96817,5.54388 8.56827,3.88788 0.43173,-0.57587 0.93612,-0.79196 0.57571,-1.58399 -1.00781,-2.73608 -3.9599,-3.95999 -6.62399,-3.95999 -0.57572,0.2161 -1.15192,1.07987 -1.79981,0.43189 -0.28808,-2.23191 -2.87991,-1.87198 -4.39212,-2.01581 -2.01608,0 -2.51996,2.44803 -1.51169,3.52783"
             style="fill:#ffffff;fill-opacity:1;fill-rule:evenodd;stroke:none"
             id="path214"
             inkscape:connector-curvature="0" />
          <path
             d="m 24.08398,66.27594 c 1.79981,0.36008 3.4556,-0.1438 5.18363,-0.28781 2.3042,1.94382 4.96817,5.54388 8.56827,3.88788 0.43173,-0.57587 0.93612,-0.79196 0.57571,-1.58399 -1.00781,-2.73608 -3.9599,-3.95999 -6.62399,-3.95999 -0.57572,0.2161 -1.15192,1.07987 -1.79981,0.43189 -0.28808,-2.23191 -2.87991,-1.87198 -4.39212,-2.01581 -2.01608,0 -2.51996,2.44803 -1.51169,3.52783 z"
             style="fill:none;stroke:#ffffff;stroke-width:0.50400001;stroke-linecap:butt;stroke-linejoin:miter;stroke-miterlimit:4;stroke-opacity:1;stroke-dasharray:none"
             id="path216"
             inkscape:connector-curvature="0" />
          <path
             d="m 23.43549,73.61993 c 1.22421,-0.8638 0.28811,-2.376 -0.1435,-3.31198 -2.08838,0.57617 -1.22409,2.73609 0.1435,3.31198"
             style="fill:#ffffff;fill-opacity:1;fill-rule:evenodd;stroke:none"
             id="path218"
             inkscape:connector-curvature="0" />
          <path
             d="m 23.43549,73.61993 c 1.22421,-0.8638 0.28811,-2.376 -0.1435,-3.31198 -2.08838,0.57617 -1.22409,2.73609 0.1435,3.31198 z"
             style="fill:none;stroke:#ffffff;stroke-width:0.50400001;stroke-linecap:butt;stroke-linejoin:miter;stroke-miterlimit:4;stroke-opacity:1;stroke-dasharray:none"
             id="path220"
             inkscape:connector-curvature="0" />
          <path
             d="m 28.7637,69.08405 c 0.14398,0.07199 0.21628,0.28778 0.35977,0.43188 l 0.36042,-1.15189 C 28.7637,67.71609 27.3237,68.72391 28.7637,69.08405"
             style="fill:#ffffff;fill-opacity:1;fill-rule:evenodd;stroke:none"
             id="path222"
             inkscape:connector-curvature="0" />
          <path
             d="m 28.7637,69.08405 c 0.14398,0.07199 0.21628,0.28778 0.35977,0.43188 l 0.36042,-1.15189 C 28.7637,67.71609 27.3237,68.72391 28.7637,69.08405 z"
             style="fill:none;stroke:#ffffff;stroke-width:0.50400001;stroke-linecap:butt;stroke-linejoin:miter;stroke-miterlimit:4;stroke-opacity:1;stroke-dasharray:none"
             id="path224"
             inkscape:connector-curvature="0" />
          <path
             d="m 34.0195,77.72394 c 0.64847,0.28808 1.29639,0.4321 1.9444,0.07199 -0.50391,-1.0798 -1.51221,-2.44797 -1.8003,-3.81592 -0.64801,-0.21609 -1.36773,-0.50418 -2.01571,0.07202 -0.14398,1.512 1.22369,2.448 1.87161,3.67191"
             style="fill:#ffffff;fill-opacity:1;fill-rule:evenodd;stroke:none"
             id="path226"
             inkscape:connector-curvature="0" />
          <path
             d="m 34.0195,77.72394 c 0.64847,0.28808 1.29639,0.4321 1.9444,0.07199 -0.50391,-1.0798 -1.51221,-2.44797 -1.8003,-3.81592 -0.64801,-0.21609 -1.36773,-0.50418 -2.01571,0.07202 -0.14398,1.512 1.22369,2.448 1.87161,3.67191 z"
             style="fill:none;stroke:#ffffff;stroke-width:0.50400001;stroke-linecap:butt;stroke-linejoin:miter;stroke-miterlimit:4;stroke-opacity:1;stroke-dasharray:none"
             id="path228"
             inkscape:connector-curvature="0" />
          <path
             d="m 53.6758,39.99603 c 0.21579,3.88809 0.0718,7.84799 -0.9361,11.80802 -0.2158,1.79998 1.36819,3.67178 2.01617,5.25579 0.71972,-4.53591 0.86371,-9.43188 0.86371,-14.32781 l -1.94378,-2.736"
             style="fill:#ffffff;fill-opacity:1;fill-rule:evenodd;stroke:none"
             id="path230"
             inkscape:connector-curvature="0" />
          <path
             d="m 53.6758,39.99603 c 0.21579,3.88809 0.0718,7.84799 -0.9361,11.80802 -0.2158,1.79998 1.36819,3.67178 2.01617,5.25579 0.71972,-4.53591 0.86371,-9.43188 0.86371,-14.32781 l -1.94378,-2.736 z"
             style="fill:none;stroke:#ffffff;stroke-width:0.50400001;stroke-linecap:butt;stroke-linejoin:miter;stroke-miterlimit:4;stroke-opacity:1;stroke-dasharray:none"
             id="path232"
             inkscape:connector-curvature="0" />
          <path
             d="m 84.34769,45.82794 c 1.9443,-0.28781 2.44819,-2.9519 2.9521,-4.4639 -1.2959,0.21589 -2.37601,1.08008 -3.168,1.87211 -0.144,0.93579 -0.144,1.72799 0.2159,2.59179"
             style="fill:#ffffff;fill-opacity:1;fill-rule:evenodd;stroke:none"
             id="path234"
             inkscape:connector-curvature="0" />
          <path
             d="m 84.34769,45.82794 c 1.9443,-0.28781 2.44819,-2.9519 2.9521,-4.4639 -1.2959,0.21589 -2.37601,1.08008 -3.168,1.87211 -0.144,0.93579 -0.144,1.72799 0.2159,2.59179 z"
             style="fill:none;stroke:#ffffff;stroke-width:0.50400001;stroke-linecap:butt;stroke-linejoin:miter;stroke-miterlimit:4;stroke-opacity:1;stroke-dasharray:none"
             id="path236"
             inkscape:connector-curvature="0" />
          <path
             d="m 52.7397,51.80405 c -0.2158,1.79998 1.36819,3.67178 2.01617,5.25579 L 52.7397,51.80405"
             style="fill:#231f20;fill-opacity:1;fill-rule:evenodd;stroke:none"
             id="path238"
             inkscape:connector-curvature="0" />
          <g
             id="g240">
            <g
               id="g242"
               clip-path="url(#clipPath244-1)">
              <path
                 d="m 52.7397,51.80405 c -0.2158,1.79998 1.36819,3.67178 2.01617,5.25579"
                 style="fill:none;stroke:#ffffff;stroke-width:0.50400001;stroke-linecap:butt;stroke-linejoin:miter;stroke-miterlimit:4;stroke-opacity:1;stroke-dasharray:none"
                 id="path248"
                 inkscape:connector-curvature="0" />
              <path
                 d="m 68.65189,0.97202 c 37.29609,0 67.75212,30.45602 67.75212,67.75189 0,37.29611 -30.45603,67.6802 -67.75212,67.6802 -37.2959,0 -67.68021,-30.38409 -67.68021,-67.6802 0,-37.29587 30.38431,-67.75189 67.68021,-67.75189 z"
                 style="fill:none;stroke:#231f20;stroke-width:1.94400001;stroke-linecap:butt;stroke-linejoin:miter;stroke-miterlimit:4;stroke-opacity:1;stroke-dasharray:none"
                 id="path250"
                 inkscape:connector-curvature="0" />
            </g>
          </g>
        </g>
      </g>
    </g>
    <g
       id="g252"
       transform="matrix(1.2499676,-1.9627161e-6,1.9627161e-6,1.2499676,266.92462,557.99178)">
      <g
         id="g254"
         clip-path="url(#clipPath256-4)">
        <g
           id="g260"
           transform="matrix(0.27443,0,0,-0.27443,90.57704,30.24385)">
          <path
             d="m 118.30699,1.95172 -24.9125,0 -11.01561,18.3598 -10.94429,-18.3598 -24.83992,0 35.92782,58.24802 35.7845,-58.24802 z"
             style="fill:#231f20;fill-opacity:1;fill-rule:evenodd;stroke:none"
             id="path262"
             inkscape:connector-curvature="0" />
          <path
             d="m 172.09099,60.19974 -21.456,0 4.823,-8.06397 -4.96701,0 0,-21.09616 c 0,-4.17581 -3.31199,-7.77588 -7.70399,-7.77588 -4.248,0 -7.77599,3.60007 -7.77599,7.77588 l -0.073,29.16013 -20.80701,0 4.82401,-8.06397 -4.96801,0 0,-21.09616 c 0,-16.05572 13.032,-29.08789 29.15902,-29.08789 16.12899,0 29.08899,13.03217 29.08899,29.08789 l -0.144,29.16013 z"
             style="fill:#231f20;fill-opacity:1;fill-rule:evenodd;stroke:none"
             id="path264"
             inkscape:connector-curvature="0" />
          <path
             d="m 204.923,30.03171 18.431,0 0,-0.07172 L 208.522,18.94391 214.28198,1.37601 214.13901,1.2319 199.522,12.10352 184.90599,1.2319 184.763,1.37601 l 5.759,17.5679 -14.903,11.01608 0,0.07172 18.28699,0 5.545,17.2081 0.071,0 5.401,-17.2081 z"
             style="fill:#231f20;fill-opacity:1;fill-rule:evenodd;stroke:none"
             id="path266"
             inkscape:connector-curvature="0" />
          <path
             d="M 204.923,30.03171 184.90599,1.2319 184.763,1.37601 l 5.759,17.5679 -14.903,11.01608 0,0.07172 18.28699,0 5.545,17.2081 0.071,0 5.401,-17.2081 z"
             style="fill:#db1f26;fill-opacity:1;fill-rule:evenodd;stroke:none"
             id="path268"
             inkscape:connector-curvature="0" />
          <path
             d="m 325.45099,1.95172 -24.84104,0 -11.08795,18.3598 -10.94299,-18.3598 -24.76802,0 35.856,58.24802 35.784,-58.24802 z"
             style="fill:#231f20;fill-opacity:1;fill-rule:evenodd;stroke:none"
             id="path270"
             inkscape:connector-curvature="0" />
          <path
             d="m 401.55499,1.95172 -24.84002,0 -11.08799,18.3598 -10.944,-18.3598 -24.76797,0 35.92795,58.24802 35.71203,-58.24802 z"
             style="fill:#231f20;fill-opacity:1;fill-rule:evenodd;stroke:none"
             id="path272"
             inkscape:connector-curvature="0" />
          <path
             d="m 226.16298,59.69583 4.53502,-7.56006 -4.75202,0 0,-50.54397 23.185,0 0,58.10403 -22.968,0 z"
             style="fill:#231f20;fill-opacity:1;fill-rule:evenodd;stroke:none"
             id="path274"
             inkscape:connector-curvature="0" />
          <path
             d="m 23.2666,19.5195 27.50388,0 0,17.13629 -27.50388,0 0,6.76804 27.50388,0 0,17.06399 -27.56641,0 -0.01947,-0.02002 -22.9678,0 4.53515,-7.58935 -4.75195,0 0,-50.73975 23.2666,0 0,17.3808 z"
             style="fill:#231f20;fill-opacity:1;fill-rule:evenodd;stroke:none"
             id="path276"
             inkscape:connector-curvature="0" />
          <g
             id="g278">
            <g
               id="g280"
               clip-path="url(#clipPath282-9)">
              <path
                 d="m 175.45598,30.03079 18.34001,0 5.511,17.27103 5.592,-17.10651 18.42199,0 L 208.60001,19.09232 214.439,1.32809 199.47098,12.10211 184.996,1.32809 l 5.59299,17.6001 -15.13301,11.1026 z"
                 style="fill:none;stroke:#ffffff;stroke-width:1;stroke-linecap:butt;stroke-linejoin:miter;stroke-miterlimit:4;stroke-opacity:1;stroke-dasharray:none"
                 id="path286"
                 inkscape:connector-curvature="0" />
            </g>
          </g>
          <rect
             style="fill:#231f20;fill-opacity:1;fill-rule:nonzero;stroke:none"
             id="rect3712"
             width="0.2890625"
             height="0.20703125"
             x="48.367188"
             y="28.366562"
             transform="matrix(2.9152087,-4.5775004e-6,-4.5775004e-6,-2.9152087,-2.9075873,258.10625)" />
        </g>
      </g>
    </g>
    <rect
       style="fill:#231f20;fill-opacity:1;fill-rule:nonzero;stroke:none"
       id="rect3716"
       width="6.0976562"
       height="0.06640625"
       x="427.29395"
       y="535.66711" />
    <rect
       style="fill:#231f20;fill-opacity:1;fill-rule:nonzero;stroke:none"
       id="rect3718"
       width="27.226358"
       height="0.046875"
       x="434.62207"
       y="535.69446" />
  </g>
</svg>
